<?xml version="1.0" encoding="UTF-8"?>
<!DOCTYPE svg PUBLIC "-//W3C//DTD SVG 1.1//EN" "http://www.w3.org/Graphics/SVG/1.1/DTD/svg11.dtd">
<!-- Creator: CorelDRAW 2021 (64 Bit) -->
<svg xmlns="http://www.w3.org/2000/svg" xml:space="preserve" width="12.6998mm" height="2.1166mm" version="1.1" style="shape-rendering:geometricPrecision; text-rendering:geometricPrecision; image-rendering:optimizeQuality; fill-rule:evenodd; clip-rule:evenodd"
viewBox="0 0 1269.98 211.66"
 xmlns:xlink="http://www.w3.org/1999/xlink"
 xmlns:xodm="http://www.corel.com/coreldraw/odm/2003">
 <defs>
  <style type="text/css">
   <![CDATA[
    .fil1 {fill:#FFD72C;fill-rule:nonzero}
    .fil0 {fill:white;fill-rule:nonzero}
   ]]>
  </style>
 </defs>
 <g id="Camada_x0020_1">
  <metadata id="CorelCorpID_0Corel-Layer"/>
  <polygon class="fil0" points="60.98,125.13 44.67,142.69 44.67,186.2 13.3,186.2 13.3,33.94 44.67,33.94 44.67,102.97 58.48,84.01 97.27,33.94 135.85,33.94 81.79,101.61 137.42,186.2 100.09,186.2 "/>
  <path id="_1" class="fil0" d="M235.18 154.93l-55 0 -10.45 31.27 -33.34 0 56.64 -152.26 29.09 0 57 152.26 -33.37 0 -10.57 -31.27zm-46.54 -25.48l38.09 0 -19.14 -57.04 -18.95 57.04z"/>
  <polygon id="_2" class="fil0" points="417.11,186.2 385.73,186.2 324.7,86.01 324.7,186.2 293.33,186.2 293.33,33.94 324.7,33.94 385.84,134.34 385.84,33.94 417.11,33.94 "/>
  <path id="_3" class="fil0" d="M444.48 186.2l0 -152.26 53.33 0c18.48,0 32.51,3.53 42.04,10.64 9.57,7.06 14.35,17.45 14.35,31.12 0,7.46 -1.93,14.06 -5.78,19.74 -3.82,5.67 -9.14,9.85 -15.99,12.49 7.81,1.96 13.95,5.89 18.45,11.81 4.5,5.93 6.75,13.17 6.75,21.74 0,14.63 -4.68,25.7 -14,33.23 -9.35,7.53 -22.66,11.35 -39.93,11.49l-59.22 0zm31.38 -66.17l0 40.9 26.87 0c7.39,0 13.17,-1.75 17.31,-5.25 4.14,-3.49 6.21,-8.35 6.21,-14.52 0,-13.89 -7.21,-20.92 -21.63,-21.13l-28.76 0zm0 -22.27l23.23 0c15.81,-0.29 23.74,-6.57 23.74,-18.92 0,-6.89 -2,-11.85 -6.04,-14.88 -3.99,-3.04 -10.31,-4.54 -18.98,-4.54l-21.95 0 0 38.34z"/>
  <path id="_4" class="fil0" d="M667.12 154.93l-55 0 -10.45 31.27 -33.34 0 56.64 -152.26 29.09 0 56.99 152.26 -33.36 0 -10.57 -31.27zm-46.54 -25.48l38.09 0 -19.14 -57.04 -18.95 57.04z"/>
  <polygon id="_5" class="fil0" points="849.04,186.2 817.66,186.2 756.63,86.01 756.63,186.2 725.26,186.2 725.26,33.94 756.63,33.94 817.77,134.34 817.77,33.94 849.04,33.94 "/>
  <path id="_6" class="fil1" d="M1050.19 166.96c-5.64,6.78 -13.6,12.03 -23.95,15.78 -10.31,3.75 -21.73,5.6 -34.26,5.6 -13.21,0 -24.74,-2.89 -34.69,-8.64 -9.93,-5.74 -17.6,-14.09 -22.99,-25.05 -5.42,-10.96 -8.17,-23.84 -8.31,-38.62l0 -10.35c0,-15.21 2.57,-28.38 7.67,-39.51 5.14,-11.14 12.53,-19.63 22.16,-25.52 9.68,-5.89 20.99,-8.85 33.95,-8.85 18.06,0 32.15,4.32 42.36,12.92 10.17,8.6 16.21,21.13 18.06,37.55l-30.51 0c-1.4,-8.71 -4.5,-15.1 -9.25,-19.13 -4.78,-4.04 -11.35,-6.07 -19.74,-6.07 -10.63,0 -18.77,4 -24.34,12.03 -5.57,8.03 -8.42,19.95 -8.46,35.79l0 9.71c0,15.99 3,28.06 9.07,36.23 6.07,8.17 14.95,12.24 26.66,12.24 11.81,0 20.2,-2.5 25.23,-7.53l0 -26.3 -28.55 0 0 -23.13 59.89 0 0 60.85z"/>
  <path id="_7" class="fil1" d="M1200.67 113.53c0,14.99 -2.68,28.13 -7.96,39.44 -5.32,11.32 -12.89,20.02 -22.74,26.16 -9.88,6.14 -21.2,9.21 -33.94,9.21 -12.64,0 -23.88,-3.03 -33.77,-9.1 -9.92,-6.07 -17.59,-14.74 -23.02,-26.02 -5.42,-11.24 -8.17,-24.2 -8.24,-38.87l0 -7.53c0,-14.99 2.68,-28.19 8.1,-39.62 5.39,-11.38 13.03,-20.13 22.88,-26.23 9.89,-6.1 21.16,-9.17 33.83,-9.17 12.71,0 23.95,3.07 33.84,9.17 9.85,6.1 17.49,14.85 22.88,26.23 5.42,11.43 8.14,24.6 8.14,39.51l0 6.82zm-31.8 -6.92c0,-15.99 -2.86,-28.13 -8.57,-36.44 -5.75,-8.32 -13.88,-12.46 -24.49,-12.46 -10.52,0 -18.63,4.1 -24.37,12.31 -5.71,8.21 -8.6,20.24 -8.68,36.09l0 7.42c0,15.56 2.86,27.66 8.61,36.23 5.71,8.6 13.92,12.88 24.66,12.88 10.53,0 18.59,-4.14 24.27,-12.42 5.64,-8.24 8.49,-20.31 8.57,-36.15l0 -7.46z"/>
  <path id="_8" class="fil1" d="M1252.28 139.52l-25.13 0 -3.53 -105.58 32.19 0 -3.53 105.58zm-12.57 16.48c5.11,0 9.18,1.5 12.28,4.5 3.11,3 4.68,6.85 4.68,11.49 0,4.61 -1.57,8.43 -4.68,11.43 -3.1,2.99 -7.17,4.49 -12.28,4.49 -5.03,0 -9.06,-1.5 -12.17,-4.49 -3.1,-3 -4.67,-6.82 -4.67,-11.43 0,-4.6 1.57,-8.42 4.67,-11.45 3.11,-3.04 7.14,-4.54 12.17,-4.54z"/>
 </g>
</svg>
